<svg class="svg-icon" style="width: 1em; height: 1em;vertical-align: middle;fill: currentColor;overflow: hidden;" viewBox="0 0 1024 1024" version="1.1" xmlns="http://www.w3.org/2000/svg"><path d="M442.334848 0.006863H36.031942a34.316124 34.316124 0 0 0-34.316124 34.316124v406.302907a34.316124 34.316124 0 0 0 34.316124 34.316124h406.302906a34.316124 34.316124 0 0 0 34.316124-34.316124V34.322987a34.316124 34.316124 0 0 0-34.316124-34.316124z m-34.316123 406.302907H70.348065V68.639111h337.67066zM442.334848 549.064845H36.031942a34.316124 34.316124 0 0 0-34.316124 34.316124v406.302907a34.316124 34.316124 0 0 0 34.316124 34.316124h406.302906a34.316124 34.316124 0 0 0 34.316124-34.316124V583.380969a34.316124 34.316124 0 0 0-34.316124-34.316124z m-34.316123 406.302907H70.348065V617.697093h337.67066zM987.274896 0.006863H581.658311a34.316124 34.316124 0 0 0-34.316124 34.316124v406.302907a34.316124 34.316124 0 0 0 34.316124 34.316124h406.302907a34.316124 34.316124 0 0 0 34.316124-34.316124V34.322987a34.316124 34.316124 0 0 0-35.002446-34.316124z m-34.316124 406.302907H615.974435V68.639111h337.670659zM987.274896 549.064845H581.658311a34.316124 34.316124 0 0 0-34.316124 34.316124v406.302907a34.316124 34.316124 0 0 0 34.316124 34.316124h406.302907a34.316124 34.316124 0 0 0 34.316124-34.316124V583.380969a34.316124 34.316124 0 0 0-35.002446-34.316124z m-34.316124 406.302907H615.974435V617.697093h337.670659z" fill="#666666" /></svg>